<svg width="584" height="233" viewBox="0 0 584 233" fill="none" xmlns="http://www.w3.org/2000/svg">
<path d="M186.27 89.7496H299.515C306.784 89.7496 313.662 93.0447 318.218 98.71L351.458 140.048C356.173 145.91 363.363 149.223 370.883 148.997L583.85 142.596" stroke="#FFB2B1" stroke-width="5" stroke-linejoin="round"/>
<path d="M198.361 90.2653C198.361 95.3013 194.279 99.3837 189.243 99.3837C184.207 99.3837 180.124 95.3013 180.124 90.2653C180.124 85.2292 184.207 81.1469 189.243 81.1469C194.279 81.1469 198.361 85.2292 198.361 90.2653Z" fill="#FF383D"/>
<path d="M0.000732422 90.366C0.000732422 51.3562 31.625 19.7319 70.6348 19.7319C109.645 19.7319 141.266 51.3562 141.266 90.366C141.266 129.376 109.645 161 70.6348 161C31.625 161 0.000732422 129.376 0.000732422 90.366Z" fill="#FFE1E2"/>
<path d="M70.3303 2.49039C119.103 2.49039 158.64 42.0281 158.64 90.8004C158.64 139.573 119.103 179.113 70.3303 179.113V222.724" stroke="#FFD6D7" stroke-width="2.4" stroke-miterlimit="10"/>
<path d="M63.0679 224.928C63.0679 220.916 66.3185 217.665 70.3301 217.665C74.3418 217.665 77.5924 220.916 77.5924 224.928C77.5924 228.939 74.3418 232.19 70.3301 232.19C66.3185 232.19 63.0679 228.939 63.0679 224.928Z" fill="#F2AEB0"/>
<path d="M42.158 88.2481V91.9971H47.572V94.2315H42.158V100H39.5798V85.8956H48.6033V88.2481H42.158ZM53.3943 88.2481V91.7715H59.1843V94.0167H53.3943V97.6475H59.8396V100H50.8162V85.8956H59.8396V88.2481H53.3943ZM64.072 85.8956L66.113 91.1163C66.421 91.9398 66.7898 92.9711 67.2195 94.21C67.6563 95.4418 67.9607 96.3227 68.1326 96.8526C68.3259 96.3227 68.6375 95.4346 69.0671 94.1885C69.504 92.9424 69.8764 91.9112 70.1843 91.0948L72.2039 85.8956H74.9539L69.4753 100H66.822L61.2683 85.8956H64.072ZM79.3259 88.2481V91.7715H85.116V94.0167H79.3259V97.6475H85.7712V100H76.7478V85.8956H85.7712V88.2481H79.3259ZM88.4998 85.8956H94.0964C95.8152 85.8956 97.1186 86.2787 98.0066 87.045C98.9018 87.8041 99.3494 88.8891 99.3494 90.2999C99.3494 91.281 99.1202 92.1189 98.6619 92.8135C98.2107 93.501 97.5733 93.9988 96.7498 94.3067L99.4353 100H96.5564L94.1824 94.7471H91.0779V100H88.4998V85.8956ZM94.0964 92.502C94.9343 92.502 95.5681 92.3015 95.9978 91.9005C96.4275 91.4922 96.6423 90.9659 96.6423 90.3214C96.6423 89.6768 96.4239 89.1576 95.9871 88.7637C95.5574 88.3627 94.9272 88.1622 94.0964 88.1622H91.0779V92.502H94.0964Z" fill="#FF383D"/>
</svg>
