<svg width="632" height="232" viewBox="0 0 632 232" fill="none" xmlns="http://www.w3.org/2000/svg">
<path opacity="0.15" d="M159.268 90.366C159.268 51.3562 127.644 19.7319 88.6338 19.7319C49.624 19.7319 17.9998 51.3562 17.9998 90.366C17.9998 129.376 49.624 161 88.6338 161C127.644 161 159.268 129.376 159.268 90.366Z" fill="#FF383D"/>
<path d="M58.2026 76.2266H53.938V88H51.3599V76.2266H47.0522V73.8955H58.2026V76.2266ZM60.1147 73.8955H62.6929V79.75L68.9448 79.7715V73.8955H71.5337V88H68.9448V81.9951H62.6929V88H60.1147V73.8955ZM74.5737 73.8955H80.1704C81.8892 73.8955 83.1925 74.2786 84.0806 75.0449C84.9757 75.804 85.4233 76.889 85.4233 78.2998C85.4233 79.2809 85.1942 80.1188 84.7358 80.8135C84.2847 81.501 83.6473 81.9987 82.8237 82.3066L85.5093 88H82.6304L80.2563 82.7471H77.1519V88H74.5737V73.8955ZM80.1704 80.502C81.0083 80.502 81.6421 80.3014 82.0718 79.9004C82.5015 79.4922 82.7163 78.9658 82.7163 78.3213C82.7163 77.6768 82.4979 77.1576 82.061 76.7637C81.6313 76.3626 81.0011 76.1621 80.1704 76.1621H77.1519V80.502H80.1704ZM101.87 80.9424C101.87 82.3604 101.547 83.6279 100.903 84.7451C100.258 85.8623 99.3667 86.7324 98.228 87.3555C97.0965 87.9785 95.8254 88.29 94.4146 88.29C93.0037 88.29 91.7326 87.9821 90.6011 87.3662C89.4767 86.7503 88.5959 85.8838 87.9585 84.7666C87.3211 83.6494 87.0024 82.3818 87.0024 80.9639C87.0024 79.5387 87.3211 78.2712 87.9585 77.1611C88.5959 76.0439 89.4767 75.1738 90.6011 74.5508C91.7326 73.9277 93.0109 73.6162 94.436 73.6162C95.8468 73.6162 97.1144 73.9277 98.2388 74.5508C99.3703 75.1738 100.258 76.0404 100.903 77.1504C101.547 78.2533 101.87 79.5173 101.87 80.9424ZM99.1411 80.9424C99.1411 79.9827 98.9406 79.1305 98.5396 78.3857C98.1385 77.641 97.5763 77.0609 96.853 76.6455C96.1369 76.223 95.3312 76.0117 94.436 76.0117C93.5265 76.0117 92.7101 76.223 91.9868 76.6455C91.2707 77.0609 90.7085 77.641 90.3003 78.3857C89.8921 79.1305 89.688 79.9899 89.688 80.9639C89.688 81.9163 89.8921 82.7686 90.3003 83.5205C90.7085 84.2653 91.2707 84.8454 91.9868 85.2607C92.7101 85.6761 93.5265 85.8838 94.436 85.8838C95.3312 85.8838 96.1369 85.6761 96.853 85.2607C97.5763 84.8454 98.1385 84.2653 98.5396 83.5205C98.9406 82.7686 99.1411 81.9092 99.1411 80.9424ZM107.456 73.8955H110.077L115.308 88H112.58L111.441 84.7881H106.048L104.856 88H102.192L107.456 73.8955ZM110.689 82.6504L109.787 80.1689C109.701 79.9326 109.464 79.2344 109.078 78.0742L108.777 77.1934C108.72 77.3867 108.583 77.7913 108.369 78.4072C108.154 79.0231 107.935 79.6104 107.713 80.1689L106.79 82.6504H110.689ZM125.707 76.2266H121.442V88H118.864V76.2266H114.556V73.8955H125.707V76.2266ZM73.6821 102.896C75.1646 102.896 76.3283 103.314 77.1733 104.152C78.0256 104.99 78.4517 106.111 78.4517 107.515C78.4517 108.424 78.2583 109.23 77.8716 109.932C77.4849 110.626 76.9263 111.171 76.1958 111.564C75.4725 111.958 74.6203 112.155 73.6392 112.155H70.4702V117H67.8921V102.896H73.6821ZM73.1558 109.942C74.0223 109.942 74.6704 109.71 75.1001 109.244C75.5369 108.771 75.7554 108.181 75.7554 107.472C75.7554 106.827 75.5369 106.283 75.1001 105.839C74.6704 105.388 74.0438 105.162 73.2202 105.162H70.4702V109.942H73.1558ZM83.3716 102.896H85.9927L91.2241 117H88.4956L87.3569 113.788H81.9644L80.772 117H78.1079L83.3716 102.896ZM86.605 111.65L85.7026 109.169C85.6167 108.933 85.3804 108.234 84.9937 107.074L84.6929 106.193C84.6356 106.387 84.4995 106.791 84.2847 107.407C84.0698 108.023 83.8514 108.61 83.6294 109.169L82.7056 111.65H86.605ZM93.0288 117V102.896H95.6069V117H93.0288ZM110.098 102.896V117H107.681L101.193 107.343V117H98.6362V102.896H101.064L107.552 112.574V102.896H110.098Z" fill="#FF383D"/>
<path d="M89.9726 2.02562C41.2003 2.02562 1.6626 41.5633 1.6626 90.3383C1.6626 139.111 41.2003 178.648 89.9726 178.648V222.262" stroke="#FFD6D7" stroke-width="2.4" stroke-miterlimit="10"/>
<path d="M97.4327 224.545C97.4327 220.533 94.1821 217.283 90.1705 217.283C86.1615 217.283 82.9082 220.533 82.9082 224.545C82.9082 228.556 86.1615 231.807 90.1705 231.807C94.1821 231.807 97.4327 228.556 97.4327 224.545Z" fill="#F2AEB0"/>
<path d="M190.511 105.07H393.822C401.243 105.07 408.246 101.638 412.792 95.7721L455.528 40.6288C460.074 34.7634 467.077 31.3306 474.498 31.3306H631.721" stroke="#FFB2B1" stroke-width="5" stroke-linejoin="round"/>
<path d="M200.761 105.586C200.761 110.622 196.678 114.704 191.642 114.704C186.606 114.704 182.524 110.622 182.524 105.586C182.524 100.55 186.606 96.4675 191.642 96.4675C196.678 96.4675 200.761 100.55 200.761 105.586Z" fill="#FF383D"/>
</svg>
