<svg width="662" height="295" viewBox="0 0 662 295" fill="none" xmlns="http://www.w3.org/2000/svg">
<path opacity="0.15" d="M0.000732422 152.366C0.000732422 113.356 31.625 81.732 70.6348 81.732C109.645 81.732 141.266 113.356 141.266 152.366C141.266 191.376 109.645 223 70.6348 223C31.625 223 0.000732422 191.376 0.000732422 152.366Z" fill="#FF383D"/>
<g filter="url(#filter0_d)">
<path d="M20.822 148.896C22.197 148.896 23.4216 149.196 24.4958 149.798C25.5772 150.399 26.4187 151.241 27.0203 152.322C27.6218 153.397 27.9226 154.618 27.9226 155.985C27.9226 157.346 27.6254 158.56 27.031 159.627C26.4366 160.687 25.5987 161.514 24.5173 162.108C23.4431 162.703 22.2113 163 20.822 163H15.5798V148.896H20.822ZM20.5964 160.648C21.5203 160.648 22.3295 160.454 23.0242 160.067C23.726 159.674 24.2667 159.126 24.6462 158.424C25.0258 157.722 25.2156 156.909 25.2156 155.985C25.2156 155.047 25.0258 154.224 24.6462 153.515C24.2667 152.799 23.726 152.244 23.0242 151.85C22.3295 151.449 21.5203 151.248 20.5964 151.248H18.158V160.648H20.5964ZM30.9412 148.896L32.6169 151.753C33.0251 152.469 33.3868 153.132 33.7019 153.74C34.017 154.342 34.2104 154.721 34.282 154.879C34.3679 154.714 34.5613 154.356 34.8621 153.805C35.17 153.246 35.5496 152.562 36.0007 151.753L37.6765 148.896H40.5554L35.5603 157.35V163H32.9822V157.35L27.9656 148.896H30.9412ZM48.1394 148.896C49.6218 148.896 50.7856 149.315 51.6306 150.152C52.4828 150.99 52.9089 152.111 52.9089 153.515C52.9089 154.424 52.7156 155.23 52.3289 155.932C51.9421 156.626 51.3835 157.171 50.6531 157.565C49.9298 157.958 49.0776 158.155 48.0964 158.155H44.9275V163H42.3494V148.896H48.1394ZM47.613 155.942C48.4796 155.942 49.1277 155.71 49.5574 155.244C49.9942 154.772 50.2126 154.181 50.2126 153.472C50.2126 152.827 49.9942 152.283 49.5574 151.839C49.1277 151.388 48.5011 151.162 47.6775 151.162H44.9275V155.942H47.613ZM54.6277 152.902C54.6277 152.036 54.8354 151.28 55.2507 150.636C55.6733 149.991 56.2641 149.494 57.0232 149.143C57.7895 148.792 58.6703 148.616 59.6658 148.616C60.6469 148.616 61.5206 148.788 62.2869 149.132C63.0531 149.476 63.6511 149.963 64.0808 150.593C64.5105 151.223 64.7253 151.957 64.7253 152.795H62.072C62.0577 152.193 61.8178 151.71 61.3523 151.345C60.894 150.972 60.2888 150.786 59.5369 150.786C58.8494 150.786 58.2979 150.958 57.8826 151.302C57.4744 151.638 57.2703 152.075 57.2703 152.612C57.2703 153.142 57.4493 153.533 57.8074 153.783C58.1726 154.034 58.656 154.231 59.2576 154.374L61.5671 154.943C62.6199 155.194 63.4721 155.656 64.1238 156.329C64.7755 156.995 65.1013 157.855 65.1013 158.907C65.1013 159.788 64.8793 160.558 64.4353 161.217C63.9985 161.876 63.3754 162.388 62.5662 162.753C61.7641 163.111 60.8295 163.29 59.7625 163.29C58.1798 163.29 56.8907 162.907 55.8953 162.141C54.907 161.367 54.3699 160.318 54.2839 158.993H56.9373C56.9659 159.652 57.2416 160.171 57.7644 160.551C58.2872 160.923 58.9675 161.109 59.8054 161.109C60.6147 161.109 61.2485 160.938 61.7068 160.594C62.1651 160.25 62.3943 159.777 62.3943 159.176C62.3943 158.66 62.2332 158.27 61.9109 158.005C61.5886 157.74 61.1661 157.543 60.6433 157.414L58.28 156.845C57.1199 156.565 56.2211 156.1 55.5837 155.448C54.9464 154.789 54.6277 153.941 54.6277 152.902ZM78.905 148.896V163H76.488L69.9998 153.343V163H67.4431V148.896H69.8708L76.3591 158.574V148.896H78.905ZM96.157 155.942C96.157 157.36 95.8347 158.628 95.1902 159.745C94.5457 160.862 93.6541 161.732 92.5154 162.356C91.3839 162.979 90.1127 163.29 88.7019 163.29C87.2911 163.29 86.0199 162.982 84.8884 162.366C83.7641 161.75 82.8832 160.884 82.2458 159.767C81.6085 158.649 81.2898 157.382 81.2898 155.964C81.2898 154.539 81.6085 153.271 82.2458 152.161C82.8832 151.044 83.7641 150.174 84.8884 149.551C86.0199 148.928 87.2983 148.616 88.7234 148.616C90.1342 148.616 91.4018 148.928 92.5261 149.551C93.6576 150.174 94.5457 151.04 95.1902 152.15C95.8347 153.253 96.157 154.517 96.157 155.942ZM93.4285 155.942C93.4285 154.983 93.2279 154.131 92.8269 153.386C92.4259 152.641 91.8637 152.061 91.1404 151.646C90.4242 151.223 89.6186 151.012 88.7234 151.012C87.8139 151.012 86.9975 151.223 86.2742 151.646C85.558 152.061 84.9958 152.641 84.5876 153.386C84.1794 154.131 83.9753 154.99 83.9753 155.964C83.9753 156.916 84.1794 157.769 84.5876 158.521C84.9958 159.265 85.558 159.845 86.2742 160.261C86.9975 160.676 87.8139 160.884 88.7234 160.884C89.6186 160.884 90.4242 160.676 91.1404 160.261C91.8637 159.845 92.4259 159.265 92.8269 158.521C93.2279 157.769 93.4285 156.909 93.4285 155.942ZM101.109 151.248V154.772H106.899V157.017H101.109V160.648H107.554V163H98.531V148.896H107.554V151.248H101.109ZM114.161 148.896H116.782L122.013 163H119.285L118.146 159.788H112.754L111.561 163H108.897L114.161 148.896ZM117.394 157.65L116.492 155.169C116.406 154.933 116.17 154.234 115.783 153.074L115.482 152.193C115.425 152.387 115.289 152.791 115.074 153.407C114.859 154.023 114.641 154.61 114.419 155.169L113.495 157.65H117.394Z" fill="#FF383D"/>
</g>
<path d="M70.3325 64.6422C119.105 64.6422 158.643 104.18 158.643 152.952C158.643 201.727 119.105 241.265 70.3325 241.265V284.876" stroke="#FFD6D7" stroke-width="2.4" stroke-miterlimit="10"/>
<path d="M63.0701 287.08C63.0701 283.068 66.3207 279.818 70.3323 279.818C74.344 279.818 77.5946 283.068 77.5946 287.08C77.5946 291.089 74.344 294.342 70.3323 294.342C66.3207 294.342 63.0701 291.089 63.0701 287.08Z" fill="#F2AEB0"/>
<path d="M175.74 164.834H354.033C363.666 164.834 372.365 159.075 376.127 150.207L432.54 17.2331C436.302 8.36547 445.002 2.60626 454.634 2.60626H661.809" stroke="#FFB2B1" stroke-width="5" stroke-linejoin="round"/>
<path d="M190.987 165.241C190.987 170.277 186.904 174.359 181.868 174.359C176.832 174.359 172.75 170.277 172.75 165.241C172.75 160.205 176.832 156.122 181.868 156.122C186.904 156.122 190.987 160.205 190.987 165.241Z" fill="#FF383D"/>
<defs>
<filter id="filter0_d" x="15.5798" y="148.616" width="106.434" height="14.6738" filterUnits="userSpaceOnUse" color-interpolation-filters="sRGB">
<feFlood flood-opacity="0" result="BackgroundImageFix"/>
<feColorMatrix in="SourceAlpha" type="matrix" values="0 0 0 0 0 0 0 0 0 0 0 0 0 0 0 0 0 0 127 0"/>
<feOffset/>
<feColorMatrix type="matrix" values="0 0 0 0 0 0 0 0 0 0 0 0 0 0 0 0 0 0 0.1 0"/>
<feBlend mode="normal" in2="BackgroundImageFix" result="effect1_dropShadow"/>
<feBlend mode="normal" in="SourceGraphic" in2="effect1_dropShadow" result="shape"/>
</filter>
</defs>
</svg>
