<svg width="487" height="232" viewBox="0 0 487 232" fill="none" xmlns="http://www.w3.org/2000/svg">
<path opacity="0.15" d="M486.001 88.366C486.001 49.3562 454.377 17.7319 415.367 17.7319C376.357 17.7319 344.736 49.3562 344.736 88.366C344.736 127.376 376.357 159 415.367 159C454.377 159 486.001 127.376 486.001 88.366Z" fill="#FF383D"/>
<path d="M362.58 84.8956H365.158V90.7501L371.41 90.7715V84.8956H373.999V99.0001H371.41V92.9952H365.158V99.0001H362.58V84.8956ZM379.617 87.2481V90.7715H385.407V93.0167H379.617V96.6475H386.063V99.0001H377.039V84.8956H386.063V87.2481H379.617ZM392.669 84.8956H395.29L400.522 99.0001H397.793L396.655 95.7881H391.262L390.07 99.0001H387.406L392.669 84.8956ZM395.903 93.6505L395 91.169C394.914 90.9327 394.678 90.2344 394.291 89.0743L393.99 88.1934C393.933 88.3868 393.797 88.7914 393.582 89.4073C393.367 90.0232 393.149 90.6104 392.927 91.169L392.003 93.6505H395.903ZM407.569 84.8956C408.944 84.8956 410.168 85.1964 411.242 85.7979C412.324 86.3995 413.165 87.2409 413.767 88.3223C414.368 89.3965 414.669 90.6176 414.669 91.9854C414.669 93.3461 414.372 94.56 413.778 95.627C413.183 96.6869 412.345 97.5141 411.264 98.1085C410.19 98.7029 408.958 99.0001 407.569 99.0001H402.326V84.8956H407.569ZM407.343 96.6475C408.267 96.6475 409.076 96.4542 409.771 96.0674C410.473 95.6736 411.013 95.1257 411.393 94.4239C411.772 93.7221 411.962 92.9092 411.962 91.9854C411.962 91.0473 411.772 90.2237 411.393 89.5147C411.013 88.7986 410.473 88.2436 409.771 87.8497C409.076 87.4486 408.267 87.2481 407.343 87.2481H404.905V96.6475H407.343ZM420.255 84.8956H422.876L428.108 99.0001H425.379L424.24 95.7881H418.848L417.656 99.0001H414.991L420.255 84.8956ZM423.489 93.6505L422.586 91.169C422.5 90.9327 422.264 90.2344 421.877 89.0743L421.576 88.1934C421.519 88.3868 421.383 88.7914 421.168 89.4073C420.953 90.0232 420.735 90.6104 420.513 91.169L419.589 93.6505H423.489ZM435.724 99.2901C434.313 99.2901 433.056 98.9857 431.953 98.377C430.858 97.7683 430.002 96.9053 429.386 95.7881C428.77 94.671 428.462 93.3891 428.462 91.9424C428.462 90.503 428.767 89.2283 429.375 88.1182C429.984 87.001 430.836 86.1381 431.932 85.5294C433.035 84.9206 434.299 84.6163 435.724 84.6163C436.898 84.6163 437.973 84.8168 438.947 85.2178C439.92 85.6189 440.726 86.199 441.364 86.9581C442.001 87.71 442.409 88.5837 442.588 89.5792H439.72C439.498 88.82 439.025 88.2006 438.302 87.7208C437.579 87.2338 436.712 86.9903 435.702 86.9903C434.793 86.9903 433.991 87.1944 433.296 87.6026C432.609 88.0108 432.079 88.5945 431.706 89.3536C431.334 90.1055 431.148 90.9756 431.148 91.9639C431.148 92.9594 431.337 93.8331 431.717 94.585C432.097 95.3298 432.63 95.8991 433.318 96.293C434.012 96.6869 434.807 96.8839 435.702 96.8839C436.684 96.8839 437.539 96.6475 438.27 96.1749C439.007 95.695 439.491 95.0613 439.72 94.2735H442.588C442.423 95.2546 442.026 96.1283 441.396 96.8946C440.766 97.6537 439.963 98.2445 438.99 98.6671C438.016 99.0824 436.927 99.2901 435.724 99.2901ZM444.93 84.8956H447.508V90.7501L453.76 90.7715V84.8956H456.349V99.0001H453.76V92.9952H447.508V99.0001H444.93V84.8956ZM461.967 87.2481V90.7715H467.757V93.0167H461.967V96.6475H468.412V99.0001H459.389V84.8956H468.412V87.2481H461.967Z" fill="#FF383D"/>
<path d="M415.868 1.64969C367.096 1.64969 327.558 41.1874 327.558 89.9597C327.558 138.732 367.096 178.272 415.868 178.272V221.883" stroke="#FFD6D7" stroke-width="2.4" stroke-miterlimit="10"/>
<path d="M423.13 224.087C423.13 220.075 419.88 216.825 415.868 216.825C411.856 216.825 408.606 220.075 408.606 224.087C408.606 228.099 411.856 231.349 415.868 231.349C419.88 231.349 423.13 228.099 423.13 224.087Z" fill="#F2AEB0"/>
<path d="M301.839 96.8593H175.559C169.442 96.8593 163.555 99.1953 159.102 103.39L130.567 130.271C126.114 134.466 120.228 136.802 114.11 136.802H0.120361" stroke="#FFB2B1" stroke-width="5" stroke-linejoin="round"/>
<path d="M305.941 96.1456C305.941 101.182 301.859 105.264 296.822 105.264C291.786 105.264 287.704 101.182 287.704 96.1456C287.704 91.1096 291.786 87.0273 296.822 87.0273C301.859 87.0273 305.941 91.1096 305.941 96.1456Z" fill="#FF383D"/>
</svg>
