<svg width="436" height="232" viewBox="0 0 436 232" fill="none" xmlns="http://www.w3.org/2000/svg">
<path opacity="0.13" d="M435.002 88.366C435.002 49.3562 403.378 17.7319 364.368 17.7319C325.358 17.7319 293.737 49.3562 293.737 88.366C293.737 127.376 325.358 159 364.368 159C403.378 159 435.002 127.376 435.002 88.366Z" fill="#FF383D"/>
<path d="M320.716 71.9023C320.716 71.0357 320.924 70.2802 321.339 69.6357C321.762 68.9911 322.353 68.4934 323.112 68.1425C323.878 67.7916 324.759 67.6161 325.754 67.6161C326.736 67.6161 327.609 67.788 328.375 68.1318C329.142 68.4755 329.74 68.9625 330.169 69.5927C330.599 70.2229 330.814 70.957 330.814 71.7949H328.161C328.146 71.1933 327.906 70.7099 327.441 70.3447C326.983 69.9723 326.377 69.7861 325.625 69.7861C324.938 69.7861 324.387 69.9579 323.971 70.3017C323.563 70.6383 323.359 71.0751 323.359 71.6122C323.359 72.1422 323.538 72.5325 323.896 72.7831C324.261 73.0338 324.745 73.2307 325.346 73.374L327.656 73.9433C328.708 74.1939 329.561 74.6559 330.212 75.329C330.864 75.9951 331.19 76.8544 331.19 77.9072C331.19 78.788 330.968 79.5579 330.524 80.2167C330.087 80.8756 329.464 81.3876 328.655 81.7529C327.853 82.1109 326.918 82.29 325.851 82.29C324.268 82.29 322.979 81.9068 321.984 81.1406C320.996 80.3671 320.458 79.318 320.373 77.9931H323.026C323.055 78.652 323.33 79.1712 323.853 79.5507C324.376 79.9231 325.056 80.1093 325.894 80.1093C326.703 80.1093 327.337 79.9374 327.795 79.5937C328.254 79.2499 328.483 78.7773 328.483 78.1757C328.483 77.6601 328.322 77.2698 328 77.0048C327.677 76.7398 327.255 76.5429 326.732 76.414L324.369 75.8447C323.208 75.5654 322.31 75.0999 321.672 74.4482C321.035 73.7893 320.716 72.9407 320.716 71.9023ZM333.532 67.8954H336.11V73.7499L342.362 73.7714V67.8954H344.951V81.9999H342.362V75.9951H336.11V81.9999H333.532V67.8954ZM351.869 67.8954H354.49L359.721 81.9999H356.993L355.854 78.788H350.461L349.269 81.9999H346.605L351.869 67.8954ZM355.102 76.6503L354.2 74.1689C354.114 73.9326 353.877 73.2343 353.491 72.0742L353.19 71.1933C353.133 71.3867 352.997 71.7913 352.782 72.4072C352.567 73.0231 352.348 73.6103 352.126 74.1689L351.203 76.6503H355.102ZM368.218 73.9648L373.084 81.9999H369.98L366.457 76.1454L364.125 79.0351V82.0429H361.526V67.8954H364.125V75.0712L369.894 67.8954H373.106L368.218 73.9648ZM374.954 81.9999V67.8954H377.532V81.9999H374.954ZM392.023 67.8954V81.9999H389.606L383.118 72.3427V81.9999H380.561V67.8954H382.989L389.477 77.5742V67.8954H392.023ZM408.62 74.3408V75.6835C408.62 76.9869 408.319 78.1399 407.717 79.1425C407.116 80.138 406.278 80.9114 405.204 81.4628C404.137 82.0143 402.919 82.29 401.551 82.29C400.126 82.29 398.876 81.9892 397.802 81.3876C396.728 80.7861 395.894 79.941 395.299 78.8525C394.705 77.7568 394.408 76.4892 394.408 75.0497C394.408 73.5816 394.712 72.289 395.321 71.1718C395.93 70.0475 396.782 69.1738 397.877 68.5507C398.98 67.9277 400.244 67.6161 401.669 67.6161C402.815 67.6161 403.854 67.8167 404.785 68.2177C405.723 68.6188 406.5 69.1845 407.116 69.915C407.732 70.6383 408.136 71.469 408.33 72.4072H405.58C405.3 71.6481 404.806 71.0572 404.097 70.6347C403.388 70.205 402.554 69.9902 401.594 69.9902C400.198 69.9902 399.095 70.4485 398.286 71.3652C397.476 72.2818 397.072 73.4957 397.072 75.0068C397.072 76.5178 397.48 77.7102 398.296 78.5839C399.12 79.4505 400.226 79.8837 401.616 79.8837C402.776 79.8837 403.736 79.5937 404.495 79.0136C405.261 78.4264 405.719 77.6028 405.87 76.5429H401.401V74.3408H408.62ZM337.968 111.29C336.557 111.29 335.301 110.986 334.198 110.377C333.102 109.768 332.246 108.905 331.63 107.788C331.014 106.671 330.707 105.389 330.707 103.942C330.707 102.503 331.011 101.228 331.62 100.118C332.228 99.0009 333.081 98.138 334.176 97.5292C335.279 96.9205 336.543 96.6161 337.968 96.6161C339.143 96.6161 340.217 96.8167 341.191 97.2177C342.165 97.6188 342.971 98.1988 343.608 98.9579C344.245 99.7099 344.653 100.584 344.833 101.579H341.964C341.742 100.82 341.27 100.2 340.546 99.7206C339.823 99.2337 338.957 98.9902 337.947 98.9902C337.037 98.9902 336.235 99.1943 335.541 99.6025C334.853 100.011 334.323 100.594 333.951 101.353C333.578 102.105 333.392 102.976 333.392 103.964C333.392 104.959 333.582 105.833 333.961 106.585C334.341 107.33 334.875 107.899 335.562 108.293C336.257 108.687 337.052 108.884 337.947 108.884C338.928 108.884 339.784 108.647 340.514 108.175C341.252 107.695 341.735 107.061 341.964 106.273H344.833C344.668 107.254 344.27 108.128 343.64 108.894C343.01 109.654 342.208 110.244 341.234 110.667C340.26 111.082 339.171 111.29 337.968 111.29ZM347.174 96.8954H349.752V102.75L356.004 102.771V96.8954H358.593V111H356.004V104.995H349.752V111H347.174V96.8954ZM361.633 111V96.8954H364.211V111H361.633ZM375.673 108.669V111H367.241V96.8954H369.84V108.669H375.673ZM386.179 108.669V111H377.747V96.8954H380.346V108.669H386.179ZM387.855 100.902C387.855 100.036 388.063 99.2802 388.478 98.6357C388.901 97.9911 389.491 97.4934 390.25 97.1425C391.017 96.7916 391.898 96.6161 392.893 96.6161C393.874 96.6161 394.748 96.788 395.514 97.1318C396.28 97.4755 396.878 97.9625 397.308 98.5927C397.738 99.2229 397.953 99.957 397.953 100.795H395.299C395.285 100.193 395.045 99.7099 394.58 99.3447C394.121 98.9723 393.516 98.7861 392.764 98.7861C392.077 98.7861 391.525 98.9579 391.11 99.3017C390.702 99.6383 390.498 100.075 390.498 100.612C390.498 101.142 390.677 101.532 391.035 101.783C391.4 102.034 391.883 102.231 392.485 102.374L394.794 102.943C395.847 103.194 396.699 103.656 397.351 104.329C398.003 104.995 398.329 105.854 398.329 106.907C398.329 107.788 398.107 108.558 397.663 109.217C397.226 109.876 396.603 110.388 395.793 110.753C394.991 111.111 394.057 111.29 392.99 111.29C391.407 111.29 390.118 110.907 389.123 110.141C388.134 109.367 387.597 108.318 387.511 106.993H390.165C390.193 107.652 390.469 108.171 390.992 108.551C391.514 108.923 392.195 109.109 393.033 109.109C393.842 109.109 394.476 108.937 394.934 108.594C395.392 108.25 395.622 107.777 395.622 107.176C395.622 106.66 395.46 106.27 395.138 106.005C394.816 105.74 394.393 105.543 393.871 105.414L391.507 104.845C390.347 104.565 389.448 104.1 388.811 103.448C388.174 102.789 387.855 101.941 387.855 100.902Z" fill="#FA5652"/>
<path d="M364.868 1.80121C316.096 1.80121 276.558 41.3389 276.558 90.1112C276.558 138.886 316.096 178.424 364.868 178.424V222.035" stroke="#FFD6D7" stroke-width="2.4" stroke-miterlimit="10"/>
<path d="M372.126 224.239C372.126 220.227 368.876 216.976 364.864 216.976C360.853 216.976 357.602 220.227 357.602 224.239C357.602 228.248 360.853 231.501 364.864 231.501C368.876 231.501 372.126 228.248 372.126 224.239Z" fill="#F2AEB0"/>
<path d="M0.737793 142.401H91.8462C99.1244 142.401 106.009 139.098 110.565 133.421L136.096 101.605C140.651 95.9289 147.536 92.6262 154.814 92.6262H248.995" stroke="#FFA6A6" stroke-width="5" stroke-linejoin="round"/>
<path d="M254.943 91.9126C254.943 96.9486 250.861 101.031 245.825 101.031C240.789 101.031 236.706 96.9486 236.706 91.9126C236.706 86.8765 240.789 82.7942 245.825 82.7942C250.861 82.7942 254.943 86.8765 254.943 91.9126Z" fill="#FF383D"/>
</svg>
